# xmcd
#
# Track frame offsets: 
#        150
#        21143
#        43477
#        62411
#        81602
#        99432
#        117756
#        141368
#        162874
#        182167
#        205553
#        226683
#
# Disc length: 3313 seconds
#
# Revision: 1
# Processed by: cddbd v1.5.2PL0 Copyright (c) Steve Scherf et al.
# Submitted via: ExactAudioCopy v0.99pb5
#
DISCID=9c0cef0c
DTITLE=Sonora  Carruseles - Que  No  Pare  La  Rumba
DYEAR=2004
DGENRE=Salsa
TTITLE0=Tremendo Boogaloo
TTITLE1=Las Muchachas
TTITLE2=Piano
TTITLE3=Cuero Na Ma
TTITLE4=El Gato Boogaloo
TTITLE5=Solo Quede
TTITLE6=Bacan De Barrio
TTITLE7=Que No Pare La Rumba
TTITLE8=Tiene Swing
TTITLE9=Mi Rico Boogaloo
TTITLE10=Camelia
TTITLE11=Micaela
EXTD=YEAR: 2004
EXTT0=
EXTT1=
EXTT2=
EXTT3=
EXTT4=
EXTT5=
EXTT6=
EXTT7=
EXTT8=
EXTT9=
EXTT10=
EXTT11=
PLAYORDER=
